<svg width="49" height="48" viewBox="0 0 49 48" fill="none" xmlns="http://www.w3.org/2000/svg">
<rect x="0.5" width="48" height="48" rx="24" fill="#0EB77E" fill-opacity="0.7"/>
<path d="M10.7445 17.9411C10.873 15.9623 12.4639 14.4116 14.4445 14.3134C17.3124 14.1714 21.4115 14 24.5 14C27.5885 14 31.6876 14.1714 34.5555 14.3134C36.5361 14.4116 38.127 15.9623 38.2555 17.9411C38.3786 19.8369 38.5 22.1697 38.5 24C38.5 25.8303 38.3786 28.1631 38.2555 30.0589C38.127 32.0377 36.5361 33.5884 34.5555 33.6866C31.6876 33.8286 27.5885 34 24.5 34C21.4115 34 17.3124 33.8286 14.4445 33.6866C12.4639 33.5884 10.873 32.0377 10.7445 30.0589C10.6214 28.1631 10.5 25.8303 10.5 24C10.5 22.1697 10.6214 19.8369 10.7445 17.9411Z" fill="white"/>
<path d="M21.5 20V28L29.5 24L21.5 20Z" fill="#0EB77E" fill-opacity="0.7"/>
</svg>
